<svg width="34" height="34" viewBox="0 0 34 34" fill="none" xmlns="http://www.w3.org/2000/svg">
<path fill-rule="evenodd" clip-rule="evenodd" d="M9.35 0H2.55H0V2.55V9.35H2.55L2.55 2.55H9.35V0Z" fill="#041B2B"/>
<path fill-rule="evenodd" clip-rule="evenodd" d="M24.65 34H31.45H34V31.45V24.65H31.45L31.45 31.45H24.65V34Z" fill="#041B2B"/>
<path fill-rule="evenodd" clip-rule="evenodd" d="M34 9.35L34 2.55L34 0L31.45 3.04084e-08L24.65 1.11498e-07L24.65 2.55L31.45 2.55L31.45 9.35L34 9.35Z" fill="#041B2B"/>
<path fill-rule="evenodd" clip-rule="evenodd" d="M-4.08701e-07 24.65L-1.11464e-07 31.45L0 34L2.55 34L9.35 34L9.35 31.45L2.55 31.45L2.55 24.65L-4.08701e-07 24.65Z" fill="#041B2B"/>
<path fill-rule="evenodd" clip-rule="evenodd" d="M9.3502 5.95002V5.95001L5.9502 5.95001L5.9502 15.3H9.3502H11.9002H15.3002V11.9V9.35002H15.3002V5.95002H15.3002V5.95001L11.9002 5.95001V5.95002H9.3502ZM9.3502 9.35002V11.9H11.9002L11.9002 9.35002H9.3502Z" fill="#041B2B"/>
<path fill-rule="evenodd" clip-rule="evenodd" d="M9.3502 18.7V18.7L5.9502 18.7L5.9502 28.05H9.3502H11.9002H15.3002V24.65V22.1H15.3002V18.7H15.3002V18.7L11.9002 18.7V18.7H9.3502ZM9.3502 22.1V24.65H11.9002L11.9002 22.1H9.3502Z" fill="#041B2B"/>
<path fill-rule="evenodd" clip-rule="evenodd" d="M22.1002 18.7V18.7L18.7002 18.7L18.7002 28.05H22.1002H24.6502H28.0502V24.65V22.1H28.0502V18.7H28.0502V18.7L24.6502 18.7V18.7H22.1002ZM22.1002 22.1V24.65H24.6502L24.6502 22.1H22.1002Z" fill="#041B2B"/>
<rect x="18.7002" y="5.95001" width="3.4" height="3.4" fill="#041B2B"/>
<path fill-rule="evenodd" clip-rule="evenodd" d="M28.0501 9.35001L28.0501 5.95001L25.5001 5.95001L25.5001 9.35001H22.1001V11.9H25.5001H28.0501V9.35001Z" fill="#041B2B"/>
<rect x="18.7002" y="11.9" width="3.4" height="3.4" fill="#041B2B"/>
</svg>
